<svg xmlns="http://www.w3.org/2000/svg" width="327.028" height="330.023" viewBox="0 0 327.028 330.023">
  <g id="Group_227" data-name="Group 227" transform="translate(-1.924 -2.51)">
    <g id="Group_26" data-name="Group 26" transform="translate(47.617 57.007) rotate(-1)">
      <ellipse id="Ellipse_24" data-name="Ellipse 24" cx="119.837" cy="119.837" rx="119.837" ry="119.837" fill="#59b5d9"/>
    </g>
    <g id="Layer_1" transform="translate(0 5.702) rotate(-1)">
      <g id="Group_27" data-name="Group 27" transform="translate(7.959 0)">
        <ellipse id="Ellipse_25" data-name="Ellipse 25" cx="17.848" cy="9.916" rx="17.848" ry="9.916" transform="matrix(0.576, -0.817, 0.817, 0.576, 71.077, 114.542)" fill="#8bd1d9"/>
        <ellipse id="Ellipse_26" data-name="Ellipse 26" cx="17.848" cy="9.916" rx="17.848" ry="9.916" transform="matrix(0.94, -0.341, 0.341, 0.94, 181.488, 263.343)" fill="#8bd1d9"/>
        <ellipse id="Ellipse_27" data-name="Ellipse 27" cx="9.916" cy="39.679" rx="9.916" ry="39.679" transform="translate(57.922 218.837) rotate(-45)" fill="#8bd1d9"/>
        <ellipse id="Ellipse_28" data-name="Ellipse 28" cx="9.893" cy="16.619" rx="9.893" ry="16.619" transform="translate(56.786 167.273) rotate(-45)" fill="#8bd1d9"/>
        <ellipse id="Ellipse_29" data-name="Ellipse 29" cx="16.619" cy="9.893" rx="16.619" ry="9.893" transform="matrix(0.866, -0.5, 0.5, 0.866, 131.551, 266.387)" fill="#8bd1d9"/>
        <ellipse id="Ellipse_30" data-name="Ellipse 30" cx="9.887" cy="5.887" rx="9.887" ry="5.887" transform="matrix(0.866, -0.5, 0.5, 0.866, 120.789, 236.924)" fill="#8bd1d9"/>
        <ellipse id="Ellipse_31" data-name="Ellipse 31" cx="21.134" cy="11.411" rx="21.134" ry="11.411" transform="translate(219.287 234.404) rotate(-65.139)" fill="#8bd1d9"/>
        <ellipse id="Ellipse_32" data-name="Ellipse 32" cx="4.788" cy="21.134" rx="4.788" ry="21.134" transform="translate(174.094 67.468) rotate(-69.274)" fill="#8bd1d9"/>
        <ellipse id="Ellipse_33" data-name="Ellipse 33" cx="4.788" cy="21.134" rx="4.788" ry="21.134" transform="translate(130.466 102.598) rotate(-69.274)" fill="#8bd1d9"/>
        <ellipse id="Ellipse_34" data-name="Ellipse 34" cx="14.658" cy="14.686" rx="14.658" ry="14.686" transform="translate(94.014 208.887) rotate(-69.274)" fill="#8bd1d9"/>
        <ellipse id="Ellipse_35" data-name="Ellipse 35" cx="9.202" cy="9.219" rx="9.202" ry="9.219" transform="translate(201.675 124.457) rotate(-69.274)" fill="#8bd1d9"/>
        <ellipse id="Ellipse_36" data-name="Ellipse 36" cx="9.202" cy="9.219" rx="9.202" ry="9.219" transform="translate(130.848 79.129) rotate(-69.274)" fill="#8bd1d9"/>
        <ellipse id="Ellipse_37" data-name="Ellipse 37" cx="18.913" cy="18.947" rx="18.913" ry="18.947" transform="translate(163.142 222.484) rotate(-69.274)" fill="#8bd1d9"/>
        <ellipse id="Ellipse_38" data-name="Ellipse 38" cx="18.913" cy="18.947" rx="18.913" ry="18.947" transform="translate(218.102 167.522) rotate(-69.274)" fill="#8bd1d9"/>
        <ellipse id="Ellipse_39" data-name="Ellipse 39" cx="13.372" cy="18.947" rx="13.372" ry="18.947" transform="translate(122.303 152.619) rotate(-69.274)" fill="#8bd1d9"/>
        <path id="Path_75" data-name="Path 75" d="M32.489,57.794c-10.63-10.63-11.621-40.246-11.7-47.232C24.483,9.927,27.2,7.853,27.2,5.383,27.2,2.408,23.265,0,18.415,0S9.632,2.408,9.632,5.383c0,2.425,2.612,4.471,6.21,5.145C15.344,40.235,0,57.794,0,57.794Z" transform="translate(142.446 0)" fill="#8bd1d9"/>
        <path id="Path_76" data-name="Path 76" d="M34.139,10.051C26.053,13.015,10.426,6.4,6.772,4.759,7.333,2.685,6.908.776,5.622.181,4.075-.533,1.876.929.709,3.45s-.861,5.145.68,5.859c1.258.584,2.952-.283,4.17-1.989C20.88,14.731,26.308,26.936,26.308,26.936Z" transform="translate(22.749 106.347)" fill="#8bd1d9"/>
        <path id="Path_77" data-name="Path 77" d="M15.378,46.811C20.4,31.728,47.946,16.775,54.513,13.387c2.351,3.2,5.6,4.782,7.932,3.615,2.81-1.405,3.23-6.267.935-10.856S56.944-1.022,54.134.383C51.839,1.528,51.142,4.973,52.2,8.69,23.871,22.277,0,16.073,0,16.073Z" transform="translate(253.88 85.095)" fill="#8bd1d9"/>
        <path id="Path_78" data-name="Path 78" d="M0,13.78c7.689-1.326,20.556,7.117,23.542,9.173-.839,1.756-.771,3.53.278,4.272,1.264.89,3.462-.057,4.912-2.113s1.609-4.448.346-5.337c-1.031-.725-2.68-.227-4.04,1.094C12.584,11.763,9.729,0,9.729,0Z" transform="translate(256.175 219.668)" fill="#8bd1d9"/>
        <path id="Path_79" data-name="Path 79" d="M0,3.235c8.329,6.2,11.961,26.347,12.715,31.118-2.465.8-4.114,2.493-3.864,4.182.295,2.034,3.224,3.286,6.539,2.8s5.762-2.527,5.468-4.555c-.244-1.654-2.232-2.8-4.76-2.9C13.468,13.531,22.205,0,22.205,0Z" transform="translate(166.458 285.768)" fill="#8bd1d9"/>
        <path id="Path_80" data-name="Path 80" d="M42.412,0C43.165,19.486,18,48.558,11.922,55.284c-4.08-2.652-8.493-3.071-10.669-.72-2.618,2.833-1,8.59,3.615,12.868s10.488,5.445,13.106,2.618c2.136-2.306,1.451-6.561-1.377-10.375,26.653-27.843,56.74-31.039,56.74-31.039Z" transform="translate(22.794 245.046)" fill="#8bd1d9"/>
        <path id="Path_81" data-name="Path 81" d="M45.726,1.006C36.558,8.128,13.769,6.037,8.409,5.431,8.279,2.536,6.947.258,5.055.02,2.777-.263.55,2.513.086,6.23s1,6.964,3.281,7.247c1.858.232,3.677-1.575,4.539-4.261C30.62,12.451,42.6,25.9,42.6,25.9Z" transform="translate(0 141.145)" fill="#8bd1d9"/>
      </g>
      <path id="Path_82" data-name="Path 82" d="M64.915,12.959c-14.584,7.207-45.283-2.057-52.479-4.4.635-4.012-.555-7.513-3.082-8.369C6.306-.838,2.47,2.358.787,7.327S.209,17.163,3.257,18.2c2.487.839,5.49-1.128,7.428-4.578C40.965,24.439,53.634,46.264,53.634,46.264Z" transform="translate(0 110.261)" fill="#59b5d9"/>
      <path id="Path_83" data-name="Path 83" d="M1.739,16.919C6.7,10.811,22.075,8.709,25.707,8.289c.527,1.892,1.756,3.19,3.043,3.06,1.547-.159,2.589-2.334,2.334-4.862S29.356,2.045,27.809,2.2c-1.264.13-2.187,1.6-2.346,3.507C9.967,7.049,0,0,0,0Z" transform="translate(280.616 143.896)" fill="#59b5d9"/>
      <path id="Path_84" data-name="Path 84" d="M0,14.018C4.584,9.434,17.361,9,20.375,8.969c.272,1.592,1.167,2.765,2.232,2.765,1.281,0,2.323-1.694,2.323-3.791s-1.037-3.791-2.323-3.791c-1.048,0-1.932,1.128-2.221,2.68C7.57,6.618,0,0,0,0Z" transform="translate(281.291 154.757)" fill="#59b5d9"/>
      <path id="Path_85" data-name="Path 85" d="M0,6.442c4.5.21,12.125,6.459,13.9,7.961a1.927,1.927,0,0,0,.2,2.4,2.1,2.1,0,0,0,2.861-.567,2.093,2.093,0,0,0,.147-2.912,1.916,1.916,0,0,0-2.357.108C7.36,6.862,5.564,0,5.564,0Z" transform="translate(251.385 246.355)" fill="#59b5d9"/>
      <path id="Path_86" data-name="Path 86" d="M0,5.281C6.278,8.748,12.771,23.055,14.244,26.455a3.064,3.064,0,0,0-1.394,3.57c.612,1.451,2.623,1.989,4.488,1.2s2.878-2.606,2.266-4.057a3.046,3.046,0,0,0-3.451-1.507C10.216,11.072,12.488,0,12.488,0Z" transform="translate(209.479 274.125)" fill="#59b5d9"/>
      <path id="Path_87" data-name="Path 87" d="M27.2,71.8c-.918-17.587,20.483-49.68,25.656-57.165,3.57,1.507,7.4.9,9.253-1.722C64.344,9.75,62.859,4.86,58.8,2S49.635-.625,47.4,2.537c-1.819,2.578-1.167,6.3,1.337,9.145C26.03,42.993,0,52.614,0,52.614Z" transform="translate(221.253 14.008)" fill="#59b5d9"/>
      <path id="Path_88" data-name="Path 88" d="M52.879,61.389C36.838,54.131,18.157,20.378,13.885,12.338c2.98-2.482,4.2-6.159,2.72-9.009C14.82-.1,9.8-1.034,5.386,1.255S-1.153,8.191.632,11.624c1.456,2.8,5.06,3.932,8.737,3.014C26.747,49.2,23.336,76.733,23.336,76.733Z" transform="translate(70.901 0.728)" fill="#59b5d9"/>
      <path id="Path_89" data-name="Path 89" d="M8.219,0c4.057,9.848-1.705,32.461-3.156,37.77-2.34-.142-4.4.969-4.935,2.844-.64,2.255,1.19,4.742,4.08,5.564s5.757-.346,6.391-2.6c.521-1.836-.6-3.83-2.6-4.946C14.667,16.211,27.585,5.5,27.585,5.5Z" transform="translate(120.933 282.55)" fill="#59b5d9"/>
      <path id="Path_90" data-name="Path 90" d="M35.959,0C32,9.887,12.111,22.086,7.368,24.885c-1.581-1.734-3.836-2.374-5.519-1.4C-.179,24.659-.6,27.718.9,30.319s4.363,3.762,6.391,2.6c1.654-.952,2.238-3.167,1.586-5.36C29.29,16.12,46.022,17.446,46.022,17.446Z" transform="translate(20.134 203.236)" fill="#59b5d9"/>
    </g>
  </g>
</svg>
