<svg id="Virus_2" data-name="Virus 2" xmlns="http://www.w3.org/2000/svg" width="134.464" height="91.708" viewBox="0 0 134.464 91.708">
  <g id="Layer_1" transform="matrix(1, -0.017, 0.017, 1, 0.043, 2.289)">
    <g id="Group_29" data-name="Group 29" transform="translate(12.723 12.595)">
      <path id="Path_96" data-name="Path 96" d="M67.886,0A44.912,44.912,0,0,0,41.994,7.787c-1.157-.06-2.325-.094-3.505-.094C17.228,7.682-.007,17.641,0,29.935S17.248,52.206,38.513,52.217q1.73,0,3.417-.087a44.929,44.929,0,0,0,25.988,7.881c21.261.011,38.494-13.411,38.485-29.984S89.151.011,67.886,0Z" transform="translate(0 0)" fill="#59b5d9"/>
    </g>
    <path id="Path_327" data-name="Path 327" d="M4.594,0C7.151.037,9.241,1.232,9.261,2.669S7.224,5.242,4.667,5.205.02,3.974,0,2.537,2.037-.035,4.594,0Z" transform="matrix(0.576, -0.817, 0.817, 0.576, 58.471, 27.049)" fill="#8bd1d9"/>
    <path id="Path_328" data-name="Path 328" d="M5.561,0c3.088.031,5.606,1.416,5.623,3.094S8.711,6.108,5.623,6.077.017,4.661,0,2.983,2.472-.03,5.561,0Z" transform="matrix(0.94, -0.341, 0.341, 0.94, 76.851, 66.545)" fill="#8bd1d9"/>
    <path id="Path_329" data-name="Path 329" d="M2.434,0C3.862.022,5.091,4.678,5.178,10.4s-1,10.343-2.429,10.321S.092,16.043,0,10.321,1.006-.022,2.434,0Z" transform="translate(16.104 41.143) rotate(-45)" fill="#8bd1d9"/>
    <path id="Path_330" data-name="Path 330" d="M2.518,0C3.944.022,5.13,1.982,5.166,4.378S4.076,8.7,2.649,8.678.037,6.7,0,4.3,1.091-.021,2.518,0Z" transform="translate(54.69 40.571) rotate(-45)" fill="#8bd1d9"/>
    <path id="Path_331" data-name="Path 331" d="M5.145,0c2.864.038,5.2,1.432,5.227,3.113S8.091,6.126,5.227,6.088.023,4.656,0,2.975,2.281-.037,5.145,0Z" transform="matrix(0.866, -0.5, 0.5, 0.866, 40.539, 54.487)" fill="#8bd1d9"/>
    <path id="Path_332" data-name="Path 332" d="M5.159,0c2.864.038,5.2.965,5.213,2.071S8.077,4.043,5.213,4,.015,3.039,0,1.934,2.295-.037,5.159,0Z" transform="matrix(0.866, -0.5, 0.5, 0.866, 29.827, 41.153)" fill="#8bd1d9"/>
    <path id="Path_333" data-name="Path 333" d="M2.578,0C4.013.02,5.186.717,5.2,1.559S4.054,3.067,2.619,3.048.011,2.331,0,1.489,1.143-.019,2.578,0Z" transform="matrix(0.866, -0.5, 0.5, 0.866, 71.615, 58.513)" fill="#8bd1d9"/>
    <path id="Path_334" data-name="Path 334" d="M5.424,0C8.438.035,10.9,1.41,10.915,3.072S8.505,6.054,5.491,6.019.019,4.61,0,2.948,2.41-.034,5.424,0Z" transform="translate(97.738 57.86) rotate(-65.139)" fill="#8bd1d9"/>
    <path id="Path_335" data-name="Path 335" d="M1.4,0C2.212.008,2.9,2.981,2.931,6.64s-.592,6.619-1.4,6.611S.036,10.27,0,6.611.594-.008,1.4,0Z" transform="translate(39.366 27.771) rotate(-69.274)" fill="#8bd1d9"/>
    <path id="Path_336" data-name="Path 336" d="M5.588,0c3.089.014,5.6.576,5.6,1.256S8.689,2.475,5.6,2.462,0,1.885,0,1.206,2.5-.014,5.588,0Z" transform="matrix(0.991, -0.134, 0.134, 0.991, 77.531, 19.459)" fill="#8bd1d9"/>
    <path id="Path_337" data-name="Path 337" d="M3.744,0A3.92,3.92,0,0,1,7.561,3.915,3.742,3.742,0,0,1,3.818,7.756,3.92,3.92,0,0,1,0,3.841,3.742,3.742,0,0,1,3.744,0Z" transform="translate(64.533 51.264) rotate(-69.274)" fill="#8bd1d9"/>
    <path id="Path_338" data-name="Path 338" d="M2.348,0A2.461,2.461,0,0,1,4.743,2.459,2.349,2.349,0,0,1,2.395,4.871,2.461,2.461,0,0,1,0,2.412,2.349,2.349,0,0,1,2.348,0Z" transform="translate(80.043 30.321) rotate(-69.274)" fill="#8bd1d9"/>
    <path id="Path_339" data-name="Path 339" d="M2.79,0A2.923,2.923,0,0,1,5.635,2.92a2.79,2.79,0,0,1-2.79,2.865A2.923,2.923,0,0,1,0,2.865,2.79,2.79,0,0,1,2.79,0Z" transform="translate(25.762 31.729) rotate(-69.274)" fill="#8bd1d9"/>
    <path id="Path_340" data-name="Path 340" d="M4.829,0A5.058,5.058,0,0,1,9.754,5.052a4.828,4.828,0,0,1-4.829,4.956A5.058,5.058,0,0,1,0,4.957,4.828,4.828,0,0,1,4.829,0Z" transform="translate(82.861 54.761) rotate(-69.274)" fill="#8bd1d9"/>
    <path id="Path_341" data-name="Path 341" d="M4.829,0A5.058,5.058,0,0,1,9.754,5.052a4.828,4.828,0,0,1-4.829,4.956A5.058,5.058,0,0,1,0,4.957,4.828,4.828,0,0,1,4.829,0Z" transform="translate(97.413 40.644) rotate(-69.274)" fill="#8bd1d9"/>
    <path id="Path_342" data-name="Path 342" d="M3.4,0C5.307.019,6.873,2.274,6.9,5.038s-1.5,4.989-3.4,4.97S.027,7.734,0,4.971,1.5-.018,3.4,0Z" transform="translate(72.02 36.798) rotate(-69.274)" fill="#8bd1d9"/>
    <path id="Path_97" data-name="Path 97" d="M1.7,16.666c-1.042,0-1.761-1.575-1.376-3.023A31.918,31.918,0,0,0,1.516,5.909V5.576A2.639,2.639,0,0,0,.85,3.742,2.691,2.691,0,0,1,.024,1.449C.2.141,1.211-.117,1.849.224A1.085,1.085,0,0,0,3.021.165.672.672,0,0,1,3.784.088a.978.978,0,0,1,.291,1.026,2.952,2.952,0,0,0,.333,1.834c.3.522.451,1.149-.274,1.422a2.3,2.3,0,0,0-1.076,2.3,39.787,39.787,0,0,0,.878,7.016c.364,1.445-.353,2.982-1.381,2.981Z" transform="translate(73.233 0)" fill="#8bd1d9"/>
    <path id="Path_98" data-name="Path 98" d="M.967,14.308a2.173,2.173,0,0,1,.063-3.656,22.84,22.84,0,0,0,6.1-5.283l.2-.27a2.161,2.161,0,0,0,.251-2.07A2.238,2.238,0,0,1,7.905.444c1-.918,2.428-.254,3.032.572a2.385,2.385,0,0,0,1.516.964,1.453,1.453,0,0,1,1.008.6.788.788,0,0,1-.24,1.089,2.111,2.111,0,0,0-.671,1.785c.065.685-.114,1.33-1.191.925a2.291,2.291,0,0,0-2.726.947,27.189,27.189,0,0,0-3.063,6.488A2.3,2.3,0,0,1,2.055,15.05Z" transform="translate(105.27 8.449)" fill="#8bd1d9"/>
    <path id="Path_99" data-name="Path 99" d="M4.747,20.329c1.665,0,2.806-1.917,2.19-3.685A30.7,30.7,0,0,1,5.019,7.213V6.806a2.811,2.811,0,0,1,1.06-2.237,2.917,2.917,0,0,0,1.316-2.8A2.079,2.079,0,0,0,4.481.275,2.2,2.2,0,0,1,2.606.2,1.32,1.32,0,0,0,1.388.11,1.034,1.034,0,0,0,.923,1.362,2.892,2.892,0,0,1,.4,3.6C-.08,4.236-.324,5,.833,5.337a2.67,2.67,0,0,1,1.72,2.8A37.718,37.718,0,0,1,1.16,16.7c-.576,1.759.567,3.634,2.209,3.635H4.747Z" transform="translate(39.147 2.618)" fill="#8bd1d9"/>
    <path id="Path_100" data-name="Path 100" d="M.53,1.942A2.767,2.767,0,0,1,4.829.548a28.1,28.1,0,0,0,8.632,4.6l.4.108A2.809,2.809,0,0,0,16.382,4.7a2.916,2.916,0,0,1,3.154-.684c1.474.73,1.273,2.571.552,3.564a2.723,2.723,0,0,0-.518,2.052,1.656,1.656,0,0,1-.289,1.348,1.016,1.016,0,0,1-1.371.17,2.734,2.734,0,0,0-2.356-.023c-.775.348-1.6.407-1.562-.938a2.658,2.658,0,0,0-2.2-2.616A35.022,35.022,0,0,0,2.969,6.8,2.685,2.685,0,0,1,.1,3.431Z" transform="translate(112.219 46.185)" fill="#8bd1d9"/>
    <path id="Path_101" data-name="Path 101" d="M2.206.047C3.466-.3,4.883,1.33,4.926,3.182A39.108,39.108,0,0,0,6.2,12.78l.119.4a3.3,3.3,0,0,0,1.448,1.96,3.377,3.377,0,0,1,1.8,2.453c.249,1.615-.885,2.263-1.771,2.073a1.367,1.367,0,0,0-1.4.462.837.837,0,0,1-.893.348c-.447-.122-.638-.615-.715-1.123A3.68,3.68,0,0,0,3.754,17.28c-.543-.523-.951-1.215-.169-1.785a2.79,2.79,0,0,0,.491-3.1A49.132,49.132,0,0,0,.547,4.343C-.4,2.746-.074.679,1.167.335Z" transform="translate(90.31 68.979)" fill="#8bd1d9"/>
    <path id="Path_102" data-name="Path 102" d="M9.187,13.039a1.926,1.926,0,0,1-2.926-1.157A18.488,18.488,0,0,0,3.849,5.654L3.688,5.42A1.942,1.942,0,0,0,2.1,4.6,2.008,2.008,0,0,1,.11,3.574C-.33,2.54.639,1.655,1.487,1.452A1.993,1.993,0,0,0,2.72.6,1.2,1.2,0,0,1,3.5.016a.694.694,0,0,1,.806.512A1.845,1.845,0,0,0,5.542,1.576c.569.156,1.035.489.386,1.182a1.793,1.793,0,0,0-.06,2.352A23.227,23.227,0,0,0,10.17,9.4a1.821,1.821,0,0,1-.063,3.041Z" transform="translate(12.053 18.005)" fill="#8bd1d9"/>
    <path id="Path_103" data-name="Path 103" d="M10.573.967a1.821,1.821,0,0,1-.052,3.063A19.172,19.172,0,0,0,5.407,8.454l-.164.226a1.8,1.8,0,0,0-.209,1.737,1.879,1.879,0,0,1-.27,2.167A1.769,1.769,0,0,1,2.225,12.1,2.008,2.008,0,0,0,.956,11.3a1.208,1.208,0,0,1-.844-.5.662.662,0,0,1,.2-.915A1.765,1.765,0,0,0,.879,8.389c-.054-.574.095-1.115,1-.777a1.918,1.918,0,0,0,2.283-.8A22.668,22.668,0,0,0,6.725,1.38,1.925,1.925,0,0,1,9.668.341Z" transform="translate(12.207 54.507)" fill="#8bd1d9"/>
    <path id="Path_104" data-name="Path 104" d="M.509,15.9a1.167,1.167,0,0,0-.477.692,1.2,1.2,0,0,0,.925,1.438,1.292,1.292,0,0,0,.6-.015c.55.693,1.444,1.46,2.479.953.836-.411.729-1.215.4-1.933a1.717,1.717,0,0,0,1.641-1.3,1.676,1.676,0,0,0-1.3-2.012,1.941,1.941,0,0,0-.355-.045l.549-1.129a2.245,2.245,0,0,0,.168-.463A29.233,29.233,0,0,1,8.765,3.8,2.461,2.461,0,0,0,7.175.066h0A2.523,2.523,0,0,0,4.068,2.854,16.806,16.806,0,0,1,4.2,8.673l-.777,3.27A27.91,27.91,0,0,1,.683,13.264C-.062,13.56.187,14.883.509,15.9Z" transform="translate(61.029 68.422)" fill="#8bd1d9"/>
    <path id="Path_105" data-name="Path 105" d="M.629,20.2a1.453,1.453,0,0,0-.488.907,1.483,1.483,0,0,0,1.326,1.634,1.514,1.514,0,0,0,.722-.1c.764.775,1.964,1.59,3.154.839.966-.607.721-1.578.22-2.411a2.051,2.051,0,0,0-.037-4.082,2.182,2.182,0,0,0-.439-.008L5.6,15.535a3.056,3.056,0,0,0,.145-.585A35.569,35.569,0,0,1,9.025,4.372,3.033,3.033,0,0,0,6.568.023h0a3.07,3.07,0,0,0-3.4,3.8,20.51,20.51,0,0,1,.962,7.083L3.632,15A33.234,33.234,0,0,1,.471,16.966C-.392,17.417.094,19,.629,20.2Z" transform="translate(29.076 60.214)" fill="#8bd1d9"/>
    <g id="Group_30" data-name="Group 30" transform="translate(101.905 4.544)">
      <path id="Path_106" data-name="Path 106" d="M0,13.486,8.443,0,1.253,14.087Z" transform="translate(0 1.406)" fill="#8bd1d9"/>
      <path id="Path_343" data-name="Path 343" d="M1.458,0c.81.01,1.469.3,1.474.641s-.648.614-1.458.6S0,.947,0,.6.648-.01,1.458,0Z" transform="translate(7.068 2.554) rotate(-60.608)" fill="#8bd1d9"/>
    </g>
    <g id="Group_31" data-name="Group 31" transform="translate(112.256 15.292)">
      <path id="Path_107" data-name="Path 107" d="M0,9.709,12.817,0,.951,10.7Z" transform="translate(0 1.29)" fill="#8bd1d9"/>
      <path id="Path_344" data-name="Path 344" d="M1.472,0C2.29.013,2.958.3,2.963.638s-.654.606-1.472.593S.005.934,0,.594.654-.012,1.472,0Z" transform="matrix(0.767, -0.641, 0.641, 0.767, 11.115, 1.9)" fill="#8bd1d9"/>
    </g>
    <g id="Group_32" data-name="Group 32" transform="translate(117.012 35.788)">
      <path id="Path_108" data-name="Path 108" d="M0,.553,11.852,0,.138,1.531Z" transform="translate(0 0.527)" fill="#8bd1d9"/>
      <path id="Path_345" data-name="Path 345" d="M1.09,0c.6,0,1.092.2,1.093.444S1.7.884,1.093.882,0,.681,0,.438.487,0,1.09,0Z" transform="translate(10.577 0.178) rotate(-4.68)" fill="#8bd1d9"/>
    </g>
    <g id="Group_33" data-name="Group 33" transform="translate(52.252 4.024)">
      <path id="Path_109" data-name="Path 109" d="M0,16.863,3.485,0,1.512,17.027Z" transform="translate(0 1.45)" fill="#8bd1d9"/>
      <path id="Path_346" data-name="Path 346" d="M1.583,0C2.46,0,3.171.311,3.173.686s-.707.676-1.583.672S0,1.047,0,.672.707,0,1.583,0Z" transform="translate(2.511 3.13) rotate(-80.532)" fill="#8bd1d9"/>
    </g>
    <g id="Group_34" data-name="Group 34" transform="translate(47.906 63.477)">
      <path id="Path_110" data-name="Path 110" d="M1.543,0l-.4,17.483L0,.092Z" transform="translate(0 0)" fill="#8bd1d9"/>
      <path id="Path_347" data-name="Path 347" d="M.69,0c.382,0,.692.722.693,1.612S1.074,3.223.693,3.223,0,2.5,0,1.611.308,0,.69,0Z" transform="translate(0.44 15.635) rotate(-0.607)" fill="#8bd1d9"/>
    </g>
    <g id="Group_35" data-name="Group 35" transform="translate(0 48.769)">
      <path id="Path_111" data-name="Path 111" d="M15.129,1.212,0,6.778,14.525,0Z" transform="translate(1.401 0)" fill="#8bd1d9"/>
      <path id="Path_348" data-name="Path 348" d="M1.479,0C2.3.009,2.968.288,2.972.623s-.658.6-1.479.59S0,.926,0,.591.658-.009,1.479,0Z" transform="translate(0 6.714) rotate(-22.688)" fill="#8bd1d9"/>
    </g>
    <g id="Group_36" data-name="Group 36" transform="translate(2.432 46.395)">
      <path id="Path_112" data-name="Path 112" d="M12.152.989,0,3.813,11.812,0Z" transform="translate(1.067 0)" fill="#8bd1d9"/>
      <path id="Path_349" data-name="Path 349" d="M1.147,0C1.782.005,2.3.219,2.3.477S1.79.941,1.154.936,0,.717,0,.459.511-.005,1.147,0Z" transform="translate(0 3.625) rotate(-15.397)" fill="#8bd1d9"/>
    </g>
    <g id="Group_37" data-name="Group 37" transform="translate(1.161 34.788)">
      <path id="Path_113" data-name="Path 113" d="M12.022,3.325,0,0,12.228,2.307Z" transform="translate(1.066 0.683)" fill="#8bd1d9"/>
      <path id="Path_350" data-name="Path 350" d="M.46,0C.718,0,.931.519.935,1.155S.733,2.3.475,2.3,0,1.784,0,1.148.2,0,.46,0Z" transform="translate(0 0.907) rotate(-76.001)" fill="#8bd1d9"/>
    </g>
    <g id="Group_38" data-name="Group 38" transform="translate(113.243 57.77)">
      <path id="Path_114" data-name="Path 114" d="M.92,0l9.407,11.247L0,.863Z" transform="translate(0 0)" fill="#8bd1d9"/>
      <path id="Path_351" data-name="Path 351" d="M.545,0c.312,0,.574.614.586,1.36S.9,2.708.586,2.7.012,2.09,0,1.343.233,0,.545,0Z" transform="translate(8.894 10.436) rotate(-40.941)" fill="#8bd1d9"/>
    </g>
  </g>
</svg>
