<svg xmlns="http://www.w3.org/2000/svg" width="179.262" height="155.778" viewBox="0 0 179.262 155.778">
  <g id="virus_3" data-name="virus 3" transform="translate(4.394 -3.998) rotate(3)">
    <path id="Path_259" data-name="Path 259" d="M114.011,377.128a2.965,2.965,0,0,1-.083,4.905,30.149,30.149,0,0,0-7.952,7.095l-.259.366a2.971,2.971,0,0,0-.327,2.781,3.088,3.088,0,0,1-.419,3.472c-1.3,1.235-3.165.342-3.948-.767a3.105,3.105,0,0,0-1.972-1.294,1.873,1.873,0,0,1-1.312-.8,1.078,1.078,0,0,1,.315-1.464,2.882,2.882,0,0,0,.875-2.395c-.086-.919.149-1.785,1.55-1.243a2.94,2.94,0,0,0,3.549-1.273,36.957,36.957,0,0,0,3.992-8.713,2.964,2.964,0,0,1,4.578-1.666Z" transform="translate(-68.54 -263.857)" fill="#59b5d9"/>
    <path id="Path_260" data-name="Path 260" d="M407.184,387.154a1.926,1.926,0,0,1,2.871,1.386,19.589,19.589,0,0,0,2.017,6.622l.146.25a1.931,1.931,0,0,0,1.55.952,2.011,2.011,0,0,1,1.934,1.193c.372,1.1-.66,1.96-1.529,2.118a2.02,2.02,0,0,0-1.3.812,1.225,1.225,0,0,1-.83.556c-.44.06-.663-.235-.776-.583a1.876,1.876,0,0,0-1.172-1.169c-.565-.2-1.011-.574-.312-1.252A1.911,1.911,0,0,0,410,395.6a23.8,23.8,0,0,0-4.052-4.727,1.925,1.925,0,0,1,.265-3.153Z" transform="translate(-284.692 -271.801)" fill="#59b5d9"/>
    <path id="Path_261" data-name="Path 261" d="M437.549,111.363a1.076,1.076,0,0,0,.238-2.106c-.077-.785-.378-1.788-1.389-1.88-.818-.074-1.124.592-1.223,1.3a1.515,1.515,0,0,0-1.6,2.573l-.949.61a2.39,2.39,0,0,0-.348.274,26.861,26.861,0,0,1-6.667,4.67,2.237,2.237,0,0,0-.6,3.6h0a2.24,2.24,0,0,0,3.644-.7,15.542,15.542,0,0,1,2.689-4.522l2.145-2.145a23.906,23.906,0,0,1,2.671.259C436.853,113.421,437.3,112.291,437.549,111.363Z" transform="translate(-298.113 -75.43)" fill="#8bd1d9"/>
    <path id="Path_262" data-name="Path 262" d="M489.938,143.637a1.58,1.58,0,0,0,1.511-2.454,1.556,1.556,0,0,0-.571-.509c.11-1.151-.033-2.68-1.464-3.1-1.157-.339-1.788.532-2.127,1.52a2.223,2.223,0,0,0-3.326,2.9,2.114,2.114,0,0,0,.295.354l-1.538.607a3.207,3.207,0,0,0-.577.3,39.263,39.263,0,0,1-10.917,4.825,3.282,3.282,0,0,0-1.895,5.01h0a3.288,3.288,0,0,0,5.444.033,22.864,22.864,0,0,1,5.152-5.741l3.695-2.475a35.115,35.115,0,0,1,3.772,1.13C488.35,146.4,489.316,144.9,489.938,143.637Z" transform="translate(-329.318 -96.596)" fill="#59b5d9"/>
    <g id="Group_124" data-name="Group 124" transform="translate(131.482 110.347)">
      <path id="Path_263" data-name="Path 263" d="M443.414,370.94l14.612,18.015L441.98,372.32Z" transform="translate(-441.98 -370.94)" fill="#8bd1d9"/>
      <ellipse id="Ellipse_269" data-name="Ellipse 269" cx="0.889" cy="2.136" rx="0.889" ry="2.136" transform="translate(13.782 16.729) rotate(-40.941)" fill="#8bd1d9"/>
    </g>
    <g id="Group_125" data-name="Group 125" transform="translate(93.378 128.808)">
      <path id="Path_264" data-name="Path 264" d="M315.815,433l3.891,22.864L313.89,433.5Z" transform="translate(-313.89 -433)" fill="#8bd1d9"/>
      <ellipse id="Ellipse_270" data-name="Ellipse 270" cx="0.889" cy="2.136" rx="0.889" ry="2.136" transform="matrix(0.98, -0.2, 0.2, 0.98, 4.475, 20.643)" fill="#8bd1d9"/>
    </g>
    <g id="Group_126" data-name="Group 126" transform="translate(22.632 33.968)">
      <path id="Path_265" data-name="Path 265" d="M101.777,133.419,82.86,120l19.925,11.706Z" transform="translate(-80.841 -118.271)" fill="#8bd1d9"/>
      <ellipse id="Ellipse_271" data-name="Ellipse 271" cx="0.889" cy="2.136" rx="0.889" ry="2.136" transform="matrix(0.551, -0.834, 0.834, 0.551, 0, 1.484)" fill="#8bd1d9"/>
    </g>
    <g id="Group_127" data-name="Group 127" transform="translate(53.753 11.892)">
      <path id="Path_266" data-name="Path 266" d="M189.667,69.35,185.05,46.62l6.527,22.168Z" transform="translate(-183.752 -44.644)" fill="#8bd1d9"/>
      <ellipse id="Ellipse_272" data-name="Ellipse 272" cx="0.889" cy="2.136" rx="0.889" ry="2.136" transform="translate(0 0.412) rotate(-13.379)" fill="#8bd1d9"/>
    </g>
    <g id="Group_128" data-name="Group 128" transform="translate(108.478 14.313)">
      <path id="Path_267" data-name="Path 267" d="M364.65,75.371,375.633,54.94l-9.156,21.219Z" transform="translate(-364.65 -52.91)" fill="#8bd1d9"/>
      <ellipse id="Ellipse_273" data-name="Ellipse 273" cx="2.136" cy="0.889" rx="2.136" ry="0.889" transform="translate(9.083 3.827) rotate(-63.627)" fill="#8bd1d9"/>
    </g>
    <path id="Path_268" data-name="Path 268" d="M221.448,147.464c0-20.785-15.963-38.071-37.042-41.745A57.755,57.755,0,0,0,154.97,97.77c-30.486,0-55.2,23.12-55.2,51.639s24.715,51.639,55.2,51.639a57.067,57.067,0,0,0,37.964-14.157C209.644,180.618,221.448,165.333,221.448,147.464Z" transform="translate(-70.089 -68.685)" fill="#59b5d9"/>
    <path id="Path_269" data-name="Path 269" d="M151.948,56.688c-7.514-3.4-16.263-19.208-18.265-22.974a3.526,3.526,0,0,0,1.273-4.218c-.836-1.609-3.186-2.044-5.253-.973s-3.064,3.248-2.225,4.858a3.509,3.509,0,0,0,4.093,1.413c8.139,16.186,6.542,29.085,6.542,29.085Z" transform="translate(-89.345 -19.626)" fill="#59b5d9"/>
    <path id="Path_270" data-name="Path 270" d="M35.866,226.751c-7.074,4.239-25.051,2.43-29.287,1.931a3.53,3.53,0,0,0-2.743-3.451C2.04,225,.341,226.688.046,229s.925,4.367,2.725,4.6a3.508,3.508,0,0,0,3.492-2.561C24.2,233.557,33.9,242.217,33.9,242.217Z" transform="translate(0 -158.215)" fill="#59b5d9"/>
    <path id="Path_271" data-name="Path 271" d="M472.77,308.636c7.946-2.207,24.795,4.313,28.745,5.92a3.524,3.524,0,0,0,1.728,4.055c1.672.7,3.757-.476,4.656-2.624s.268-4.456-1.4-5.155a3.508,3.508,0,0,0-4.046,1.541c-16.623-7.2-23.667-18.122-23.667-18.122Z" transform="translate(-332.129 -206.717)" fill="#59b5d9"/>
    <path id="Path_272" data-name="Path 272" d="M275.174,32.645c-6-6-6.565-22.733-6.61-26.678,2.085-.357,3.62-1.529,3.62-2.924,0-1.684-2.222-3.043-4.962-3.043s-4.962,1.359-4.962,3.04c0,1.368,1.475,2.526,3.507,2.906-.283,16.781-8.948,26.7-8.948,26.7h18.354Z" transform="translate(-180.42)" fill="#8bd1d9"/>
    <path id="Path_273" data-name="Path 273" d="M487.216,193.462c3.6-7.69,19.134-13.919,22.828-15.305,1.047,1.838,2.671,2.883,3.983,2.407,1.58-.571,2.1-3.124,1.169-5.7s-2.969-4.2-4.549-3.626c-1.288.467-1.871,2.249-1.538,4.287-15.871,5.453-28.15.687-28.15.687Z" transform="translate(-337.883 -120.217)" fill="#8bd1d9"/>
    <path id="Path_274" data-name="Path 274" d="M346.07,412.216c5.723,2.05,11.209,12.708,12.447,15.249-1.241.872-1.874,2.1-1.449,3,.515,1.089,2.368,1.288,4.141.449s2.8-2.4,2.282-3.486c-.419-.887-1.728-1.184-3.159-.806-4.956-10.95-2.38-20.023-2.38-20.023Z" transform="translate(-243.12 -285.645)" fill="#8bd1d9"/>
    <path id="Path_275" data-name="Path 275" d="M169.786,411.34c3.216,7.859-2.737,23.5-4.221,27.16-2.062-.476-3.93.012-4.468,1.3-.649,1.55.872,3.662,3.4,4.721s5.1.663,5.75-.886c.53-1.264-.384-2.9-2.112-4.037,6.747-15.365,18.575-21.163,18.575-21.163Z" transform="translate(-113.067 -288.975)" fill="#8bd1d9"/>
    <path id="Path_276" data-name="Path 276" d="M57.577,252.38c-3.912,4.742-15.927,6.3-18.768,6.6-.4-1.478-1.351-2.5-2.356-2.407-1.211.116-2.038,1.809-1.847,3.784s1.324,3.481,2.532,3.365c.988-.1,1.716-1.237,1.853-2.728,12.11-.955,19.854,4.6,19.854,4.6Z" transform="translate(-24.29 -177.302)" fill="#8bd1d9"/>
    <ellipse id="Ellipse_274" data-name="Ellipse 274" cx="5.007" cy="2.781" rx="5.007" ry="2.781" transform="matrix(0.94, -0.341, 0.341, 0.94, 64.748, 104.194)" fill="#8bd1d9"/>
    <ellipse id="Ellipse_275" data-name="Ellipse 275" cx="6.925" cy="5.539" rx="6.925" ry="5.539" transform="matrix(0.94, -0.341, 0.341, 0.94, 86.017, 110.882)" fill="#8bd1d9"/>
    <ellipse id="Ellipse_276" data-name="Ellipse 276" cx="3.29" cy="8.728" rx="3.29" ry="8.728" transform="matrix(0.969, -0.249, 0.249, 0.969, 133.291, 69.339)" fill="#8bd1d9"/>
    <ellipse id="Ellipse_277" data-name="Ellipse 277" cx="2.778" cy="14.624" rx="2.778" ry="14.624" transform="translate(58.389 118.296) rotate(-69.274)" fill="#8bd1d9"/>
    <ellipse id="Ellipse_278" data-name="Ellipse 278" cx="8.728" cy="4.849" rx="8.728" ry="4.849" transform="translate(118.672 104.241) rotate(-33.82)" fill="#8bd1d9"/>
    <ellipse id="Ellipse_279" data-name="Ellipse 279" cx="4.075" cy="6.842" rx="4.075" ry="6.842" transform="translate(48.085 58.529) rotate(-45)" fill="#8bd1d9"/>
    <ellipse id="Ellipse_280" data-name="Ellipse 280" cx="2.436" cy="6.842" rx="2.436" ry="6.842" transform="translate(39.745 74.983)" fill="#8bd1d9"/>
    <ellipse id="Ellipse_281" data-name="Ellipse 281" cx="6.036" cy="6.048" rx="6.036" ry="6.048" transform="translate(63.412 75.662) rotate(-69.274)" fill="#8bd1d9"/>
    <ellipse id="Ellipse_282" data-name="Ellipse 282" cx="4.013" cy="6.048" rx="4.013" ry="6.048" transform="translate(37.975 99.411) rotate(-40.941)" fill="#8bd1d9"/>
    <ellipse id="Ellipse_283" data-name="Ellipse 283" cx="7.788" cy="7.803" rx="7.788" ry="7.803" transform="translate(91.878 81.259) rotate(-69.274)" fill="#8bd1d9"/>
    <ellipse id="Ellipse_284" data-name="Ellipse 284" cx="4.444" cy="7.803" rx="4.444" ry="7.803" transform="translate(112.051 52.451) rotate(-69.274)" fill="#8bd1d9"/>
    <ellipse id="Ellipse_285" data-name="Ellipse 285" cx="5.506" cy="7.803" rx="5.506" ry="7.803" transform="translate(75.063 52.494) rotate(-69.274)" fill="#8bd1d9"/>
  </g>
</svg>
