<svg id="virus_4" data-name="virus 4" xmlns="http://www.w3.org/2000/svg" width="332.693" height="374.943" viewBox="0 0 332.693 374.943">
  <g id="virus_4-2" data-name="virus 4" transform="matrix(0.974, 0.225, -0.225, 0.974, -45.762, -96.113)">
    <path id="Path_230" data-name="Path 230" d="M381.347,295.038a6.757,6.757,0,0,1,9.47-5.952c6.468,2.847,15.4,6.038,23.446,6.33l1.015.034a6.772,6.772,0,0,0,5.711-2.838c1.5-2.056,3.922-4.292,7.147-3.526,3.974.946,4.593,5.608,3.458,8.489a7.054,7.054,0,0,0-.009,5.376,4.3,4.3,0,0,1,.112,3.5c-.636,1.419-1.935,1.531-3.182,1.221a6.573,6.573,0,0,0-5.659,1.316c-1.643,1.307-3.587,1.944-4.309-1.411a6.692,6.692,0,0,0-6.855-5.178c-5.952.224-14.785.963-21.6,3.243a6.752,6.752,0,0,1-8.885-6.657Z" transform="translate(-34.158 -30.989)" fill="#8bd1d9"/>
    <path id="Path_231" data-name="Path 231" d="M181.159,326.519a3.221,3.221,0,0,0-3.372,4.808,3.138,3.138,0,0,0,1.1,1.1c-.361,2.331-.249,5.453,2.615,6.485,2.314.834,3.7-.877,4.516-2.838a4.533,4.533,0,0,0,7.113-5.5,4.922,4.922,0,0,0-.559-.757l3.208-1.058a6.923,6.923,0,0,0,1.213-.533,80.223,80.223,0,0,1,22.8-8.524,6.7,6.7,0,0,0,4.455-9.977h0a6.7,6.7,0,0,0-11.078-.714c-3.234,4.18-7.362,8.833-11.173,11.069l-7.818,4.6a71.461,71.461,0,0,1-7.543-2.752C184.72,321.075,182.578,324.016,181.159,326.519Z" transform="translate(-5.637 -33.495)" fill="#59b5d9"/>
    <path id="Path_232" data-name="Path 232" d="M415.959,236.985a3.2,3.2,0,0,0,2.193-.507,3.232,3.232,0,0,0,.886-4.49,3.272,3.272,0,0,0-1.161-1.041c.224-2.348-.069-5.462-2.985-6.322-2.357-.7-3.638,1.092-4.335,3.1a4.532,4.532,0,0,0-6.786,5.9,4.473,4.473,0,0,0,.6.722l-3.139,1.239a6.611,6.611,0,0,0-1.178.6,80.462,80.462,0,0,1-22.259,9.84,6.7,6.7,0,0,0-3.862,10.218h0a6.7,6.7,0,0,0,11.1.069c2.985-4.361,6.838-9.246,10.51-11.706l7.534-5.049a71.07,71.07,0,0,1,7.689,2.305C412.725,242.627,414.695,239.565,415.959,236.985Z" transform="translate(-32.981 -22.031)" fill="#59b5d9"/>
    <g id="Group_101" data-name="Group 101" transform="translate(222.993 307.027)">
      <path id="Path_233" data-name="Path 233" d="M253.551,346.887,240.09,392.231l9.487-46.161Z" transform="translate(-237.409 -346.07)" fill="#8bd1d9"/>
      <ellipse id="Ellipse_228" data-name="Ellipse 228" cx="4.361" cy="1.815" rx="4.361" ry="1.815" transform="translate(0 49.321) rotate(-75.362)" fill="#8bd1d9"/>
    </g>
    <g id="Group_102" data-name="Group 102" transform="translate(322.358 318.621)">
      <path id="Path_234" data-name="Path 234" d="M355.416,359.55l29.794,36.735L352.5,362.371Z" transform="translate(-352.5 -359.55)" fill="#8bd1d9"/>
      <ellipse id="Ellipse_229" data-name="Ellipse 229" cx="1.815" cy="4.361" rx="1.815" ry="4.361" transform="translate(28.097 34.108) rotate(-40.941)" fill="#8bd1d9"/>
    </g>
    <g id="Group_103" data-name="Group 103" transform="translate(320.475 318.208)">
      <path id="Path_235" data-name="Path 235" d="M351.772,359.07,394.235,379.9,350.31,362.846Z" transform="translate(-350.31 -359.07)" fill="#8bd1d9"/>
      <ellipse id="Ellipse_230" data-name="Ellipse 230" cx="1.815" cy="4.361" rx="1.815" ry="4.361" transform="matrix(0.411, -0.912, 0.912, 0.411, 38.643, 20.417)" fill="#8bd1d9"/>
    </g>
    <g id="Group_104" data-name="Group 104" transform="translate(323.855 177.266)">
      <path id="Path_236" data-name="Path 236" d="M354.24,241.674l22.4-41.654-18.673,43.263Z" transform="translate(-354.24 -195.875)" fill="#8bd1d9"/>
      <ellipse id="Ellipse_231" data-name="Ellipse 231" cx="4.361" cy="1.815" rx="4.361" ry="1.815" transform="translate(18.518 7.813) rotate(-63.627)" fill="#8bd1d9"/>
    </g>
    <g id="Group_105" data-name="Group 105" transform="translate(157.265 200.81)">
      <path id="Path_237" data-name="Path 237" d="M209.608,242.528,165.33,225.92l45.37,12.7Z" transform="translate(-161.222 -223.043)" fill="#8bd1d9"/>
      <ellipse id="Ellipse_232" data-name="Ellipse 232" cx="1.815" cy="4.361" rx="1.815" ry="4.361" transform="translate(0 3.439) rotate(-71.331)" fill="#8bd1d9"/>
    </g>
    <g id="Group_106" data-name="Group 106" transform="translate(174.333 129.684)">
      <path id="Path_238" data-name="Path 238" d="M223.8,171.289l-38.627-27.3,40.674,23.8Z" transform="translate(-181.065 -140.455)" fill="#8bd1d9"/>
      <ellipse id="Ellipse_233" data-name="Ellipse 233" cx="1.815" cy="4.361" rx="1.815" ry="4.361" transform="matrix(0.55, -0.835, 0.835, 0.55, 0, 3.032)" fill="#8bd1d9"/>
    </g>
    <g id="Group_107" data-name="Group 107" transform="translate(190.479 132.792)">
      <path id="Path_239" data-name="Path 239" d="M223.213,165.876l-21.193-19.7,22.715,17.744Z" transform="translate(-199.569 -143.869)" fill="#8bd1d9"/>
      <ellipse id="Ellipse_234" data-name="Ellipse 234" cx="1.11" cy="2.666" rx="1.11" ry="2.666" transform="translate(0 1.674) rotate(-48.99)" fill="#8bd1d9"/>
    </g>
    <g id="Group_108" data-name="Group 108" transform="translate(275.448 92.546)">
      <path id="Path_240" data-name="Path 240" d="M297.96,143.183l22.4-41.663-18.673,43.263Z" transform="translate(-297.96 -97.376)" fill="#8bd1d9"/>
      <ellipse id="Ellipse_235" data-name="Ellipse 235" cx="4.361" cy="1.815" rx="4.361" ry="1.815" transform="translate(18.516 7.813) rotate(-63.627)" fill="#8bd1d9"/>
    </g>
    <path id="Path_241" data-name="Path 241" d="M210.451,191.526c-15.37,6.821-51.3-1.325-59.751-3.389.129-3.7-1.72-6.915-4.7-7.663-3.578-.912-7.431,2.073-8.61,6.674s.783,9.065,4.369,9.977c2.924.74,6.021-1.11,7.706-4.309,35.677,9.581,53.137,29.519,53.137,29.519Z" transform="translate(0 -15.852)" fill="#59b5d9"/>
    <path id="Path_242" data-name="Path 242" d="M328.909,199.934c7.483-7.457,30.387-10.777,35.806-11.465.757,2.2,2.563,3.664,4.481,3.44,2.305-.275,3.9-2.89,3.544-5.857s-2.5-5.143-4.808-4.868c-1.884.224-3.286,2-3.544,4.266-23.085,2.417-37.818-5.35-37.818-5.35Z" transform="translate(-26.514 -15.823)" fill="#59b5d9"/>
    <path id="Path_243" data-name="Path 243" d="M371.68,332.54c14.536-4.042,45.37,7.887,52.595,10.829-.593,3.268.619,6.356,3.165,7.423,3.062,1.273,6.872-.869,8.515-4.8s.49-8.154-2.572-9.427c-2.494-1.041-5.487.2-7.405,2.821-30.413-13.177-43.306-33.157-43.306-33.157Z" transform="translate(-32.825 -33.469)" fill="#59b5d9"/>
    <path id="Path_244" data-name="Path 244" d="M199.387,254.33c-7.345,8.24-31.024,13.091-36.632,14.14-.929-2.245-2.9-3.664-4.877-3.311-2.391.421-3.879,3.251-3.337,6.322s2.924,5.212,5.315,4.782c1.944-.344,3.3-2.288,3.44-4.662,23.919-3.931,39.754,3.268,39.754,3.268Z" transform="translate(-2.431 -26.208)" fill="#59b5d9"/>
    <path id="Path_245" data-name="Path 245" d="M291.7,133.563c-12.239-12.239-13.383-46.351-13.478-54.4,4.257-.731,7.38-3.122,7.38-5.96,0-3.423-4.533-6.2-10.115-6.2s-10.115,2.77-10.115,6.2c0,2.8,3.01,5.152,7.156,5.926-.576,34.215-18.243,54.436-18.243,54.436Z" transform="translate(-16.402)" fill="#8bd1d9"/>
    <path id="Path_246" data-name="Path 246" d="M255.337,362.71c6.554,16.024-5.582,47.925-8.61,55.382-4.206-.972-8.016.026-9.117,2.649-1.325,3.157,1.78,7.466,6.932,9.624s10.4,1.35,11.723-1.806c1.084-2.572-.783-5.909-4.3-8.231,13.762-31.333,37.879-43.151,37.879-43.151Z" transform="translate(-14.026 -41.371)" fill="#8bd1d9"/>
    <path id="Path_247" data-name="Path 247" d="M330.627,216.112c-4.473-46.144-30.637-81.572-62.254-81.572-34.757,0-62.933,42.807-62.933,95.608,0,33.638,11.448,63.2,28.736,80.238a69.585,69.585,0,1,0,96.451-94.275Z" transform="translate(-9.568 -9.449)" fill="#59b5d9"/>
    <ellipse id="Ellipse_236" data-name="Ellipse 236" cx="2.666" cy="7.104" rx="2.666" ry="7.104" transform="translate(216.32 241.305) rotate(-40.738)" fill="#8bd1d9"/>
    <ellipse id="Ellipse_237" data-name="Ellipse 237" cx="2.666" cy="7.104" rx="2.666" ry="7.104" transform="translate(245.36 154.171) rotate(-40.738)" fill="#8bd1d9"/>
    <ellipse id="Ellipse_238" data-name="Ellipse 238" cx="5.247" cy="9.934" rx="5.247" ry="9.934" transform="matrix(0.802, -0.597, 0.597, 0.802, 223.721, 274.419)" fill="#8bd1d9"/>
    <ellipse id="Ellipse_239" data-name="Ellipse 239" cx="2.684" cy="20.565" rx="2.684" ry="20.565" transform="translate(203.6 236.925) rotate(-17.29)" fill="#8bd1d9"/>
    <ellipse id="Ellipse_240" data-name="Ellipse 240" cx="4.894" cy="11.758" rx="4.894" ry="11.758" transform="translate(255.502 313.193) rotate(-48.271)" fill="#8bd1d9"/>
    <ellipse id="Ellipse_241" data-name="Ellipse 241" cx="4.343" cy="8.73" rx="4.343" ry="8.73" transform="translate(242.451 197.428) rotate(-7.706)" fill="#8bd1d9"/>
    <ellipse id="Ellipse_242" data-name="Ellipse 242" cx="4.343" cy="8.73" rx="4.343" ry="8.73" transform="translate(259.395 132.075) rotate(-7.706)" fill="#8bd1d9"/>
    <ellipse id="Ellipse_243" data-name="Ellipse 243" cx="4.343" cy="8.73" rx="4.343" ry="8.73" transform="translate(300.472 174.253) rotate(-17.29)" fill="#8bd1d9"/>
    <ellipse id="Ellipse_244" data-name="Ellipse 244" cx="6.373" cy="3.552" rx="6.373" ry="3.552" transform="translate(213.401 198.664) rotate(-30.55)" fill="#8bd1d9"/>
    <ellipse id="Ellipse_245" data-name="Ellipse 245" cx="6.373" cy="3.552" rx="6.373" ry="3.552" transform="translate(230.347 139.358) rotate(-30.55)" fill="#8bd1d9"/>
    <ellipse id="Ellipse_246" data-name="Ellipse 246" cx="5.625" cy="8.825" rx="5.625" ry="8.825" transform="matrix(0.862, -0.507, 0.507, 0.862, 240.654, 225.608)" fill="#8bd1d9"/>
    <ellipse id="Ellipse_247" data-name="Ellipse 247" cx="4.309" cy="7.655" rx="4.309" ry="7.655" transform="translate(201.682 204.312) rotate(-8.783)" fill="#8bd1d9"/>
    <ellipse id="Ellipse_248" data-name="Ellipse 248" cx="7.251" cy="11.388" rx="7.251" ry="11.388" transform="matrix(0.862, -0.507, 0.507, 0.862, 257.09, 265.021)" fill="#8bd1d9"/>
    <ellipse id="Ellipse_249" data-name="Ellipse 249" cx="11.456" cy="11.388" rx="11.456" ry="11.388" transform="matrix(0.862, -0.507, 0.507, 0.862, 295.815, 245.66)" fill="#8bd1d9"/>
    <ellipse id="Ellipse_250" data-name="Ellipse 250" cx="11.362" cy="12.884" rx="11.362" ry="12.884" transform="matrix(0.862, -0.507, 0.507, 0.862, 270.272, 196.503)" fill="#8bd1d9"/>
    <ellipse id="Ellipse_251" data-name="Ellipse 251" cx="11.646" cy="7.56" rx="11.646" ry="7.56" transform="matrix(0.5, -0.866, 0.866, 0.5, 207.754, 173.931)" fill="#8bd1d9"/>
    <ellipse id="Ellipse_252" data-name="Ellipse 252" cx="7.251" cy="11.388" rx="7.251" ry="11.388" transform="matrix(0.862, -0.507, 0.507, 0.862, 272.818, 153.687)" fill="#8bd1d9"/>
    <ellipse id="Ellipse_253" data-name="Ellipse 253" cx="11.388" cy="7.251" rx="11.388" ry="7.251" transform="translate(322.69 296.645) rotate(-48.271)" fill="#8bd1d9"/>
    <ellipse id="Ellipse_254" data-name="Ellipse 254" cx="4.266" cy="11.052" rx="4.266" ry="11.052" transform="matrix(0.939, -0.344, 0.344, 0.939, 295.983, 273.985)" fill="#8bd1d9"/>
    <ellipse id="Ellipse_255" data-name="Ellipse 255" cx="11.052" cy="4.266" rx="11.052" ry="4.266" transform="matrix(0.866, -0.5, 0.5, 0.866, 293.307, 323.445)" fill="#8bd1d9"/>
    <ellipse id="Ellipse_256" data-name="Ellipse 256" cx="5.255" cy="11.121" rx="5.255" ry="11.121" transform="translate(268.326 228.11) rotate(-22.228)" fill="#8bd1d9"/>
    <ellipse id="Ellipse_257" data-name="Ellipse 257" cx="5.255" cy="11.121" rx="5.255" ry="11.121" transform="matrix(0.866, -0.5, 0.5, 0.866, 327.788, 231.82)" fill="#8bd1d9"/>
  </g>
</svg>
